#!OML:ASF I:\Random Stuff\random\construction\7_22_03\Session 2\subj1.ASF
:FULLY-SPECIFIED
:DEGREES
338
root -0.0221026 17.8433 -0.586197 1.76626 67.5101 -7.71449
lowerback 1.88735 0.297308 0.811784
upperback -1.54938 0.44377 0.679106
thorax -2.64674 0.215257 0.223353
lowerneck -23.5365 3.1618 5.01372
upperneck 37.5338 3.91095 -1.15961
head 18.1315 2.37695 -0.472599
rclavicle -3.81915e-014 1.98785e-016
rhumerus -34.1266 38.8874 -101.736
rradius 105.634
rwrist -33.8078
rhand -16.9965 -1.07305
rfingers 7.12502
rthumb 9.23869 -30.8506
lclavicle -3.81915e-014 1.98785e-016
lhumerus -21.8202 -24.1296 97.6351
lradius 104.171
lwrist 58.3287
lhand -10.6718 51.9545
lfingers 7.12502
lthumb 15.3366 -278.634
rfemur -5.30824 11.4572 20.2839
rtibia 0
rfoot -0.359621 -14.3558
rtoes -19.0324
lfemur -12.5717 -16.974 -12.2909
ltibia 18.38
lfoot -14.2188 20.068
ltoes -26.8152
339
root -0.0153041 17.8451 -0.582013 1.82155 67.5653 -7.64811
lowerback 1.85881 0.268475 0.790348
upperback -1.56316 0.405028 0.697891
thorax -2.6452 0.196577 0.256358
lowerneck -23.4464 3.26965 5.09856
upperneck 37.5034 4.0829 -1.24436
head 18.1048 2.44573 -0.489952
rclavicle -1.55549e-014 9.14409e-015
rhumerus -34.2929 38.9639 -101.831
rradius 105.469
rwrist -34.5305
rhand -17.5022 -0.280608
rfingers 7.12502
rthumb 8.75077 -30.0792
lclavicle -1.55549e-014 9.14409e-015
lhumerus -21.9376 -24.4549 97.7026
lradius 103.965
lwrist 58.7239
lhand -11.1933 52.1136
lfingers 7.12502
lthumb 14.8342 -278.437
rfemur -5.26159 11.4009 20.2547
rtibia -7.15625e-015
rfoot -0.494236 -14.3804
rtoes -17.8809
lfemur -12.5282 -16.9583 -12.3334
ltibia 18.3365
lfoot -14.2148 20.0317
ltoes -26.7594
340
root -0.00894941 17.8476 -0.576221 1.7063 67.6299 -7.74431
lowerback 1.82546 0.25648 0.811568
upperback -1.5399 0.389997 0.736757
thorax -2.60266 0.189247 0.28517
lowerneck -23.4512 3.34648 5.15347
upperneck 37.4918 4.20339 -1.30652
head 18.1092 2.49189 -0.501475
rclavicle -1.3244e-014 -8.15017e-015
rhumerus -34.4487 39.0223 -101.895
rradius 105.344
rwrist -35.4748
rhand -18.512 1.20485
rfingers 7.12502
rthumb 7.77614 -28.6322
lclavicle -1.3244e-014 -8.15017e-015
lhumerus -22.0263 -24.7562 97.8136
lradius 103.738
lwrist 59.1376
lhand -11.7624 52.643
lfingers 7.12502
lthumb 14.286 -277.868
rfemur -5.18388 11.3372 20.2924
rtibia -1.19271e-014
rfoot -0.74469 -14.3897
rtoes -15.7308
lfemur -12.5092 -16.878 -12.3081
ltibia 18.3776
lfoot -14.2625 19.9068
ltoes -26.9246
341
root -0.00432657 17.8455 -0.572716 1.56408 67.6797 -7.87834
lowerback 1.82225 0.239402 0.858899
upperback -1.51835 0.369831 0.791696
thorax -2.5788 0.179018 0.315888
lowerneck -23.5249 3.41481 5.1564
upperneck 37.5401 4.32176 -1.34081
head 18.1625 2.53376 -0.489711
rclavicle 5.93993e-014 8.94531e-015
rhumerus -34.6292 39.1292 -101.955
rradius 105.21
rwrist -36.2468
rhand -19.6911 3.11305
rfingers 7.12502
rthumb 6.63804 -26.7629
lclavicle 5.93993e-014 8.94531e-015
lhumerus -22.1312 -25.0023 97.973
lradius 103.501
lwrist 59.4914
lhand -12.7483 52.7132
lfingers 7.12502
lthumb 13.3359 -277.734
rfemur -5.13078 11.2917 20.3656
rtibia -8.74653e-015
rfoot -0.728146 -14.3722
rtoes -16.1042
lfemur -12.5654 -16.8117 -12.263
ltibia 18.55
lfoot -14.3217 19.7817
ltoes -27.4842
342
root -0.00697717 17.841 -0.572632 1.17068 67.6914 -8.3999
lowerback 1.84019 0.233169 1.06362
upperback -1.55874 0.371546 0.879527
thorax -2.62993 0.177136 0.291099
lowerneck -23.5751 3.48481 5.20322
upperneck 37.5675 4.44029 -1.41613
head 18.2013 2.57582 -0.505205
rclavicle 4.39811e-014 -1.08338e-014
rhumerus -34.8538 39.2256 -102.083
rradius 105.088
rwrist -36.9729
rhand -20.7948 4.89638
rfingers 7.12502
rthumb 5.5725 -25.0104
lclavicle 4.39811e-014 -1.08338e-014
lhumerus -22.2917 -25.2559 98.1343
lradius 103.251
lwrist 59.8805
lhand -12.4356 52.3638
lfingers 7.12502
lthumb 13.6372 -278.103
rfemur -5.24215 11.2922 20.5995
rtibia 1.59028e-015
rfoot -0.437544 -14.2799
rtoes -18.8691
lfemur -12.8017 -16.7055 -11.9937
ltibia 18.759
lfoot -14.336 19.6688
ltoes -27.867
343
root -0.013044 17.8386 -0.57358 0.625756 67.6991 -9.13885
lowerback 1.86194 0.244783 1.3691
upperback -1.62982 0.401725 0.975169
thorax -2.71419 0.187461 0.216687
lowerneck -23.5662 3.55275 5.25579
upperneck 37.5439 4.54852 -1.47888
head 18.1954 2.6167 -0.519565
rclavicle -2.78795e-014 -1.26228e-014
rhumerus -35.1392 39.303 -102.275
rradius 104.963
rwrist -37.9138
rhand -22.0097 6.53459
rfingers 7.12502
rthumb 4.3994 -23.3997
lclavicle -2.78795e-014 -1.26228e-014
lhumerus -22.4919 -25.5296 98.3042
lradius 102.961
lwrist 60.3452
lhand -8.82301 53.4167
lfingers 7.12502
lthumb 17.1168 -277.317
rfemur -5.43213 11.2969 20.9025
rtibia 5.56597e-015
rfoot -0.242297 -14.2049
rtoes -20.3563
lfemur -13.0793 -16.6564 -11.6013
ltibia 18.8956
lfoot -14.2877 19.6432
ltoes -28.0847
344
root -0.00839388 17.8382 -0.573071 0.729082 67.7378 -9.01048
lowerback 1.88759 0.248509 1.38821
upperback -1.62749 0.40738 0.962024
thorax -2.72599 0.18968 0.192138
lowerneck -23.5307 3.61381 5.31028
upperneck 37.4901 4.64224 -1.53654
head 18.1648 2.65272 -0.535912
rclavicle 4.70995e-014 -1.98785e-015
rhumerus -35.4293 39.4625 -102.529
rradius 104.74
rwrist -38.9962
rhand -23.6971 8.47506
rfingers 7.12502
rthumb 2.76984 -21.4867
lclavicle 4.70995e-014 -1.98785e-015
lhumerus -22.7191 -25.7644 98.4872
lradius 102.569
lwrist 60.8718
lhand -8.87163 55.074
lfingers 7.12502
lthumb 17.07 -275.656
rfemur -5.40151 11.2568 20.8514
rtibia 1.19271e-014
rfoot -0.317785 -14.3207
rtoes -19.8627
lfemur -13.0424 -16.7483 -11.6693
ltibia 18.8849
lfoot -14.2793 19.7089
ltoes -27.9284
345
root 0.00405555 17.838 -0.571515 1.40677 67.7549 -8.12305
lowerback 1.93982 0.276405 1.15014
upperback -1.56265 0.432815 0.846767
thorax -2.68907 0.205453 0.205987
lowerneck -23.5169 3.61985 5.30585
upperneck 37.4281 4.63741 -1.50921
head 18.1247 2.65336 -0.524332
rclavicle -1.15171e-014 -2.11706e-014
rhumerus -35.8273 39.7908 -102.945
rradius 104.432
rwrist -40.2714
rhand -25.4936 10.9151
rfingers 7.12502
rthumb 1.03482 -19.0621
lclavicle -1.15171e-014 -2.11706e-014
lhumerus -22.9556 -26.038 98.6921
lradius 102.032
lwrist 61.3382
lhand -7.12393 56.2417
lfingers 7.12502
lthumb 18.7516 -274.642
rfemur -5.19417 11.2264 20.4983
rtibia 2.3059e-014
rfoot -0.361178 -14.3405
rtoes -20.1271
lfemur -12.6843 -16.8934 -12.1317
ltibia 18.6354
lfoot -14.301 19.8294
ltoes -27.3647
346
root 0.0163289 17.8361 -0.569542 2.14451 67.7334 -7.1665
lowerback 1.99885 0.360071 0.908355
upperback -1.48677 0.531727 0.701788
thorax -2.64433 0.257554 0.188319
lowerneck -23.5801 3.55958 5.25566
upperneck 37.41 4.52525 -1.42807
head 18.1201 2.61282 -0.502043
rclavicle -8.23714e-015 1.11319e-014
rhumerus -36.1327 39.8239 -103.168
rradius 104.149
rwrist -40.4715
rhand -26.8567 12.361
rfingers 7.12502
rthumb -0.28165 -17.6185
lclavicle -8.23714e-015 1.11319e-014
lhumerus -23.2405 -26.432 98.9097
lradius 101.524
lwrist 61.6485
lhand -6.83184 56.2683
lfingers 7.12502
lthumb 19.0325 -274.643
rfemur -4.98595 11.2305 20.1175
rtibia -1.27222e-014
rfoot -0.299106 -14.2694
rtoes -20.9304
lfemur -12.2442 -17.0343 -12.6275
ltibia 18.2455
lfoot -14.1946 19.9798
ltoes -27.4893
347
root 0.0293818 17.8359 -0.565865 2.86086 67.6634 -6.23595
lowerback 2.06943 0.46806 0.674128
upperback -1.4109 0.663568 0.553771
thorax -2.60634 0.325838 0.161803
lowerneck -23.7011 3.48883 5.3038
upperneck 37.3968 4.41601 -1.50854
head 18.143 2.56256 -0.57053
rclavicle -6.33999e-014 -2.18663e-015
rhumerus -36.3861 39.669 -103.296
rradius 103.818
rwrist -40.007
rhand -27.7496 13.5611
rfingers 7.12502
rthumb -1.14402 -16.4156
lclavicle -6.33999e-014 -2.18663e-015
lhumerus -23.533 -26.8119 99.0576
lradius 101.03
lwrist 62.0313
lhand -5.23172 57.5972
lfingers 7.12502
lthumb 20.5708 -273.473
rfemur -4.76932 11.281 19.7504
rtibia 4.77083e-015
rfoot -0.454645 -14.3923
rtoes -20.0469
lfemur -11.8334 -17.2188 -13.1078
ltibia 17.9481
lfoot -14.112 20.1705
ltoes -27.6325
